<svg width="26" height="41" viewBox="0 0 26 41" fill="none" xmlns="http://www.w3.org/2000/svg">
<g clip-path="url(#clip0_1_73)">
<path d="M25.5 0.5H0.5V40.5H25.5V0.5Z" stroke="white"/>
<path d="M3.26 3.32V2H4.7V3.32H3.26ZM2.912 12.632C2.564 12.632 2.204 12.56 2 12.464V11.432H2.732C3.092 11.432 3.26 11.204 3.26 10.712V4.232H4.7V10.712C4.7 11.864 3.98 12.632 2.912 12.632ZM8.34247 10.4C6.72247 10.4 5.60647 9.512 5.55847 8.192H6.91447C6.96247 8.792 7.53847 9.2 8.34247 9.2C9.14647 9.2 9.68647 8.888 9.68647 8.42C9.68647 8.132 9.32647 7.928 8.21047 7.712C6.47047 7.316 5.91847 6.92 5.91847 5.924C5.91847 4.808 6.89047 4.064 8.34247 4.064C9.49447 4.064 10.5025 4.688 10.8505 5.624L9.53047 5.948C9.35047 5.54 8.87047 5.264 8.34247 5.264C7.75447 5.264 7.35847 5.504 7.35847 5.852C7.35847 6.104 7.63447 6.26 8.48647 6.452C10.4905 6.872 11.1265 7.328 11.1265 8.42C11.1265 9.608 10.0105 10.4 8.34247 10.4ZM11.8688 10.232V4.232H13.3088V4.676C13.7048 4.304 14.3528 4.064 14.9408 4.064C16.5848 4.064 17.6768 5.036 17.6768 6.5V10.232H16.2368V6.668C16.2368 5.864 15.6488 5.336 14.7728 5.336C13.8968 5.336 13.3088 5.864 13.3088 6.668V10.232H11.8688ZM6.5 24.4C5.768 24.4 4.964 24.064 4.508 23.572V24.232H3.068V16H4.508V18.892C4.964 18.4 5.768 18.064 6.5 18.064C8.396 18.064 9.668 19.336 9.668 21.232C9.668 23.128 8.396 24.4 6.5 24.4ZM6.356 23.128C7.484 23.128 8.228 22.372 8.228 21.232C8.228 20.092 7.484 19.336 6.356 19.336C5.252 19.336 4.508 20.092 4.508 21.232C4.508 22.372 5.252 23.128 6.356 23.128ZM10.4157 24.232V16H11.8557V24.232H10.4157ZM13.193 24.232V16H14.633V20.272L16.661 18.232H18.677L16.133 20.728L18.965 24.232H17.117L15.101 21.736L14.633 22.204V24.232H13.193ZM6.5 38.4C5.768 38.4 4.964 38.064 4.508 37.572V38.232H3.068V30H4.508V32.892C4.964 32.4 5.768 32.064 6.5 32.064C8.396 32.064 9.668 33.336 9.668 35.232C9.668 37.128 8.396 38.4 6.5 38.4ZM6.356 37.128C7.484 37.128 8.228 36.372 8.228 35.232C8.228 34.092 7.484 33.336 6.356 33.336C5.252 33.336 4.508 34.092 4.508 35.232C4.508 36.372 5.252 37.128 6.356 37.128ZM10.4157 38.232V32.232H11.8557V32.94C12.1677 32.448 12.7557 32.112 13.3077 32.112C13.5237 32.112 13.7757 32.16 13.9437 32.232V33.336H13.4517C12.4917 33.336 11.8557 33.876 11.8557 34.68V38.232H10.4157ZM14.7164 38.232V32.232H16.1564V32.676C16.5524 32.304 17.2004 32.064 17.7884 32.064C19.4324 32.064 20.5244 33.036 20.5244 34.5V38.232H19.0844V34.668C19.0844 33.864 18.4964 33.336 17.6204 33.336C16.7444 33.336 16.1564 33.864 16.1564 34.668V38.232H14.7164ZM21.6305 38.232V36.456H23.4065V38.232H21.6305Z" fill="white"/>
</g>
<defs>
<clipPath id="clip0_1_73">
<rect width="26" height="41" fill="white"/>
</clipPath>
</defs>
</svg>
